<svg width="375" height="717" viewBox="0 0 375 717" fill="none" xmlns="http://www.w3.org/2000/svg">
<rect x="-170" width="715.672" height="717" fill="#EFF5FF"/>
<g opacity="0.08">
<mask id="mask0_8_2788" style="mask-type:alpha" maskUnits="userSpaceOnUse" x="-170" y="0" width="716" height="717">
<rect x="-170" width="715.672" height="717" fill="#EFF5FF"/>
</mask>
<g mask="url(#mask0_8_2788)">
<path d="M81.5135 -19.8472L120.017 18.6562C146.764 45.4028 190.117 45.4028 216.716 18.6562L238.76 -3.38773C243.463 -8.09043 250.958 -8.09043 255.66 -3.38773L255.807 -3.24077C260.657 1.60889 260.657 9.39775 255.807 14.2474C248.459 21.5954 197.318 72.7373 185.708 84.3471C161.312 108.742 161.312 148.274 185.708 172.67C210.103 197.065 249.635 197.065 274.03 172.67L488.003 -41.3033L535.03 -34.8371L457.142 43.0515C423.194 76.9991 423.194 132.109 457.142 166.057C491.09 200.004 546.199 200.004 580.147 166.057L699.184 47.0194C704.328 41.8758 712.704 41.8758 717.848 47.0194C722.992 52.163 722.992 60.5396 717.848 65.6832L541.791 241.888C522.539 261.139 522.539 292.148 541.791 311.399C561.042 330.651 592.051 330.651 611.302 311.399L733.426 189.276C739.01 183.692 747.975 183.692 753.412 189.276C758.997 194.861 758.997 203.825 753.412 209.263L751.208 211.467C710.647 252.028 710.647 317.719 751.208 358.28L842.323 449.394V-78.631" fill="#91CFF2"/>
<path d="M-6.86741 -12.4093C-2.12887 -64.8684 -40.8141 -111.236 -93.2732 -115.975C-145.732 -120.713 -192.1 -82.0281 -196.839 -29.569C-201.577 22.8901 -162.892 69.258 -110.433 73.9965C-57.9738 78.735 -11.6059 40.0498 -6.86741 -12.4093Z" fill="#FFCF54"/>
<path d="M56.3835 42.7576C26.1099 42.7576 1.56769 67.2998 1.56769 97.5735C1.56769 127.847 26.1099 152.389 56.3835 152.389C86.6572 152.389 111.199 127.847 111.199 97.5735C111.199 67.2998 86.6572 42.7576 56.3835 42.7576ZM56.3835 141.661C31.9883 141.661 12.2957 121.969 12.2957 97.5735C12.2957 73.3251 31.9883 53.4856 56.3835 53.4856C80.6319 53.4856 100.471 73.1782 100.471 97.5735C100.471 121.969 80.7788 141.661 56.3835 141.661Z" fill="#91CFF2"/>
<path d="M33.0169 480.403C39.8347 480.403 45.3615 474.876 45.3615 468.058C45.3615 461.241 39.8347 455.714 33.0169 455.714C26.1992 455.714 20.6724 461.241 20.6724 468.058C20.6724 474.876 26.1992 480.403 33.0169 480.403Z" fill="#FFCF54"/>
<path d="M59.4698 453.95C66.2875 453.95 71.8144 448.423 71.8144 441.606C71.8144 434.788 66.2875 429.261 59.4698 429.261C52.652 429.261 47.1252 434.788 47.1252 441.606C47.1252 448.423 52.652 453.95 59.4698 453.95Z" fill="#FFCF54"/>
<path d="M-305.578 440.577L-185.071 320.07C-158.03 293.03 -114.236 293.03 -87.3428 320.07C-60.3023 347.111 -60.3023 390.905 -87.3428 417.798L-142.159 472.614C-154.062 484.518 -154.062 503.623 -142.159 515.526C-130.255 527.43 -111.15 527.43 -99.2466 515.526L-87.3428 503.623C-62.9475 479.227 -23.4154 479.227 0.979828 503.623C25.3751 528.018 25.3751 567.55 0.979828 591.945L-47.9577 640.883C-53.2482 646.173 -53.2482 654.697 -47.9577 659.987C-42.6671 665.278 -34.1435 665.278 -28.853 659.987L90.4781 540.656C111.493 519.641 145.735 519.641 166.75 540.656C187.765 561.672 187.765 595.913 166.75 616.928L134.566 649.259C130.01 653.815 130.01 661.31 134.566 666.013C139.122 670.569 146.617 670.569 151.319 666.013L153.965 663.367C210.397 606.935 302.1 606.935 358.532 663.367L413.642 718.477H-479.725C-479.725 718.33 -294.85 451.305 -305.578 440.577Z" fill="#B9E6FF"/>
<path d="M19.4967 264.079C21.1132 262.462 23.9054 262.462 25.522 264.079L38.4544 277.011C40.071 278.628 40.071 281.42 38.4544 283.036C36.8379 284.653 34.0456 284.653 32.4291 283.036L19.4967 270.104C17.8801 268.487 17.8801 265.842 19.4967 264.079Z" fill="#7477AB"/>
<path d="M38.6004 264.079C40.2169 265.695 40.2169 268.487 38.6004 270.104L25.6679 283.036C24.0514 284.653 21.2591 284.653 19.6426 283.036C18.026 281.42 18.026 278.628 19.6426 277.011L32.575 264.079C34.1916 262.462 36.8369 262.462 38.6004 264.079Z" fill="#7477AB"/>
<path d="M303.569 171.494C319.071 171.494 331.638 158.927 331.638 143.425C331.638 127.923 319.071 115.356 303.569 115.356C288.067 115.356 275.5 127.923 275.5 143.425C275.5 158.927 288.067 171.494 303.569 171.494Z" fill="#7477AB"/>
<path d="M56.9715 584.597C63.3023 584.597 68.4344 579.465 68.4344 573.134C68.4344 566.804 63.3023 561.671 56.9715 561.671C50.6408 561.671 45.5087 566.804 45.5087 573.134C45.5087 579.465 50.6408 584.597 56.9715 584.597Z" fill="#31346B"/>
<path d="M330.463 63.4789L428.338 -34.3961" stroke="white" stroke-width="3" stroke-miterlimit="10" stroke-linecap="round"/>
<path d="M-98.071 824.435L72.2551 654.109" stroke="white" stroke-width="3" stroke-miterlimit="10" stroke-linecap="round"/>
<path d="M385.573 167.526C392.309 167.526 397.77 162.065 397.77 155.329C397.77 148.592 392.309 143.131 385.573 143.131C378.836 143.131 373.375 148.592 373.375 155.329C373.375 162.065 378.836 167.526 385.573 167.526Z" fill="#91CFF2"/>
<path d="M424.223 611.05C367.497 611.05 321.352 657.195 321.352 713.921C321.352 770.648 367.497 816.793 424.223 816.793C480.949 816.793 527.095 770.648 527.095 713.921C527.095 657.195 480.949 611.05 424.223 611.05ZM424.223 796.366C378.666 796.366 341.632 759.479 341.632 713.775C341.632 668.07 378.519 631.183 424.223 631.183C469.781 631.183 506.814 668.07 506.814 713.775C506.814 759.479 469.781 796.366 424.223 796.366Z" fill="#91CFF2"/>
<path d="M398.652 -80.6884L226.416 91.5481" stroke="#31346B" stroke-width="3" stroke-miterlimit="10" stroke-linecap="round"/>
</g>
</g>
</svg>
